<svg width="42" height="42" viewBox="0 0 42 42" fill="none" xmlns="http://www.w3.org/2000/svg">
<path d="M9.73349 17.6963L9.66632 17.562L10.8109 16.9894L10.8781 17.1244C11.1218 17.6125 11.6119 17.9151 12.1576 17.9151C12.7034 17.9151 13.1935 17.6119 13.4372 17.1244L13.5044 16.9894L14.649 17.562L14.5818 17.697C14.1199 18.6208 13.1909 19.1947 12.1576 19.1947C11.1244 19.1947 10.1948 18.6208 9.73349 17.6963ZM0.00172334 32.6302V32.071C0.00172334 30.1939 0.51739 28.3743 1.48475 26.7768L0.255078 24.6252C0.000443772 24.1812 -0.0654541 23.6636 0.0695406 23.1678C0.204535 22.6732 0.524428 22.2606 0.969718 22.0066C1.25698 21.8415 1.58583 21.7538 1.92108 21.7538C2.60949 21.7538 3.24799 22.1249 3.58836 22.7231L4.20639 23.8044C4.87369 23.3175 5.5992 22.9119 6.36439 22.599C4.94854 21.8978 3.85387 20.6528 3.35036 19.1576C1.81871 18.9209 0.641508 17.5933 0.641508 15.9958V15.5767C0.641508 15.3912 0.657503 15.2063 0.689492 15.0271L1.7848 8.72527C2.66451 3.67033 7.02656 0.00115967 12.1576 0.00115967C17.2887 0.00115967 21.6508 3.67033 22.5305 8.72527L23.6264 15.0284C23.6578 15.2063 23.6738 15.3912 23.6738 15.5767V15.9958C23.6738 17.5933 22.4966 18.9209 20.9649 19.157C20.4614 20.6528 19.3667 21.8978 17.9496 22.599C21.7231 24.1524 24.3136 27.8881 24.3136 32.071V32.6302C24.3136 35.0998 22.304 37.1087 19.8351 37.1087H17.9157V39.6678H6.39957V37.1087H4.48022C2.01065 37.1087 0.00172334 35.0998 0.00172334 32.6302ZM7.03936 35.8291H10.2383V33.5348L9.5985 32.8951C9.25622 32.5534 8.66121 32.5528 8.31893 32.8951L7.94402 33.27H7.03936C6.6862 33.27 6.39957 33.5572 6.39957 33.9098V35.1893C6.39957 35.5419 6.6862 35.8291 7.03936 35.8291ZM4.89032 27.5804L3.82316 28.2918L5.93701 31.9904H6.39957V30.2214L4.89032 27.5804ZM8.95871 26.8721H7.67914V31.7767C8.52174 31.1792 9.75845 31.2463 10.5032 31.9898L10.7584 32.2457C10.9715 32.0877 11.2325 31.9904 11.5179 31.9904H16.6361V26.8721H15.3566C15.3566 27.5778 14.7827 28.1517 14.077 28.1517H10.2383C9.5326 28.1517 8.95871 27.5778 8.95871 26.8721ZM14.077 13.4366C14.077 14.4948 14.9381 15.356 15.9964 15.356C17.0546 15.356 17.9157 14.4948 17.9157 13.4366C17.9157 12.3784 17.0546 11.5173 15.9964 11.5173C14.9381 11.5173 14.077 12.3784 14.077 13.4366ZM13.9023 11.0381C12.7993 10.6126 11.8051 9.91847 11.0271 8.98502L10.276 8.0842C10.0617 7.82637 9.74629 7.67858 9.41104 7.67858C8.98111 7.67858 8.59468 7.91722 8.40274 8.30173L8.13339 8.84171L7.16988 9.16288C6.70923 9.31643 6.39957 9.74636 6.39957 10.232V10.8941C6.93571 10.4879 7.59597 10.2377 8.31893 10.2377C9.86337 10.2377 11.1557 11.3388 11.4532 12.7969H12.862C13.0041 12.0976 13.3841 11.4911 13.9023 11.0381ZM8.31893 11.5173C7.26073 11.5173 6.39957 12.3784 6.39957 13.4366C6.39957 14.4948 7.26073 15.356 8.31893 15.356C9.37713 15.356 10.2383 14.4948 10.2383 13.4366C10.2383 12.3784 9.37713 11.5173 8.31893 11.5173ZM6.39957 16.0706C6.39957 17.6637 7.41491 19.0719 8.92609 19.5754C9.7111 19.8377 10.2383 20.569 10.2383 21.3962V22.3156L10.3931 22.9349C10.5959 23.7468 11.3214 24.313 12.1576 24.313C12.9938 24.313 13.7187 23.7468 13.9222 22.9355L14.077 22.3162V21.3968C14.077 20.5696 14.6042 19.8377 15.3892 19.576C16.9004 19.0725 17.9157 17.6643 17.9157 16.0713V15.9798C17.3796 16.3861 16.7193 16.6362 15.9964 16.6362C14.4519 16.6362 13.1595 15.5351 12.862 14.0771H11.4532C11.1557 15.5351 9.86401 16.6362 8.31893 16.6362C7.59597 16.6362 6.93571 16.3861 6.39957 15.9798V16.0706ZM10.2383 25.5926V26.8721H14.0776L14.077 25.5926H10.2383ZM16.6361 37.1087H12.1576H10.2383H7.67914V38.3883H16.6361V37.1087ZM15.9528 23.313L15.187 23.1486L15.1627 23.2458C15.0527 23.686 14.8447 24.0769 14.5767 24.4147C15.0348 24.6098 15.3566 25.0641 15.3566 25.5926H17.9157V31.9904H20.2304L21.0468 33.6238L19.9022 34.1964L19.4397 33.27H11.5179V35.8291H12.1576H19.8351C21.5989 35.8291 23.034 34.3941 23.034 32.6302V32.071C23.034 27.8759 20.0558 24.1927 15.9528 23.313ZM7.15644 21.5651L8.24088 22.0302L8.95808 21.8767V21.3968C8.95808 21.1211 8.78277 20.8767 8.52046 20.7897C6.48595 20.1115 5.11936 18.2158 5.11936 16.0713V10.2313C5.11936 9.19423 5.78026 8.27678 6.76425 7.94857L7.22426 7.79566L7.25753 7.72976C7.66827 6.90892 8.49295 6.39901 9.4104 6.39901C10.1263 6.39901 10.8007 6.71442 11.2594 7.26528L12.0105 8.16609C12.7283 9.02789 13.6695 9.64336 14.7129 9.96965C14.5703 9.69902 14.4621 9.406 14.4097 9.0893C14.2696 8.24991 13.5959 7.67858 12.7974 7.67858V6.39901C14.2235 6.39901 15.4289 7.42011 15.663 8.82699C15.8031 9.66639 16.4775 10.2377 17.2759 10.2377H18.5555H19.1953V16.0706C19.1953 18.2152 17.8281 20.1115 15.7942 20.7891C15.5325 20.8761 15.3566 21.1205 15.3566 21.3962V21.876L16.0738 22.0296L17.1576 21.5645C18.4941 20.9919 19.5017 19.8089 19.8543 18.3988L19.9745 17.9151H20.4742C21.5324 17.9151 22.3936 17.054 22.3936 15.9958V15.5767C22.3936 15.4673 22.384 15.3579 22.3654 15.2492L21.2688 8.94471C20.4972 4.50397 16.6649 1.28073 12.1576 1.28073C7.65035 1.28073 3.81804 4.50397 3.04518 8.94471L1.94923 15.2479C1.93004 15.3579 1.92044 15.4673 1.92044 15.5767V15.9958C1.92044 17.054 2.78159 17.9151 3.83979 17.9151H4.33947L4.45975 18.3995C4.81291 19.8095 5.82057 20.9931 7.15644 21.5651ZM4.85257 24.9349L6.39957 27.6418V25.5926H8.95871C8.95871 25.0641 9.28053 24.6098 9.73861 24.4147C9.47054 24.0769 9.26261 23.686 9.15257 23.2458L9.12826 23.1486L8.3618 23.313C7.08606 23.5862 5.88967 24.1524 4.85257 24.9349ZM1.36511 23.9899L3.18721 27.1786L4.25437 26.4671L2.47705 23.3565C2.30815 23.0603 1.89741 22.949 1.60502 23.1172C1.45531 23.203 1.34911 23.3399 1.30369 23.5049C1.2589 23.67 1.28065 23.8421 1.36511 23.9899ZM1.28129 32.6302C1.28129 34.3941 2.71633 35.8291 4.48022 35.8291H5.23772C5.16607 35.6282 5.12 35.4145 5.12 35.1893V33.9098C5.12 33.6846 5.16607 33.4709 5.23772 33.27H4.23582L3.77262 34.1957L2.62804 33.6231L3.44505 31.9904H4.46358L2.2269 28.0762C1.60886 29.3129 1.28129 30.6737 1.28129 32.071V32.6302ZM37.433 14.452L34.4362 16.864C34.1068 17.1288 33.6928 17.2754 33.2705 17.2754C32.8483 17.2754 32.4337 17.1295 32.1049 16.864L29.1081 14.4513C27.6871 13.308 26.8727 11.603 26.8727 9.77323C26.8727 9.24093 26.9431 8.71119 27.0826 8.19744L28.4997 2.96912L28.9674 2.94993C30.3717 2.89171 31.7293 2.56478 33.0031 1.97873L33.2705 1.8559L33.538 1.97873C34.8111 2.56478 36.1688 2.89107 37.5737 2.94993L38.0414 2.96912L39.4585 8.19681C39.598 8.71119 39.6684 9.24093 39.6684 9.77259C39.6684 11.6037 38.8533 13.3087 37.433 14.452ZM38.3888 9.77323C38.3888 9.35418 38.3332 8.9364 38.2238 8.53205L37.0491 4.20007C35.9704 4.1137 34.9212 3.8757 33.9103 3.50654V10.8775H32.6308V3.50654C31.6199 3.8757 30.57 4.11306 29.492 4.20007L28.3173 8.53269C28.2079 8.93704 28.1523 9.35482 28.1523 9.77323C28.1523 11.2134 28.7933 12.5557 29.9104 13.4546L32.6308 15.6445V12.1571H33.9103V15.6445L36.6307 13.4552C37.7478 12.5563 38.3888 11.214 38.3888 9.77323ZM36.6569 18.102L30.7114 24.0481L29.8842 23.2209L28.9795 24.1255L30.7114 25.8574L37.5616 19.0066L36.6569 18.102ZM36.6569 22.5805L30.7114 28.5266L29.8842 27.6994L28.9795 28.604L30.7114 30.3359L37.5616 23.4851L36.6569 22.5805ZM29.8842 32.1779L28.9795 33.0825L30.7114 34.8144L37.5616 27.9636L36.6569 27.0589L30.7114 33.0051L29.8842 32.1779Z" fill="#685ED6"/>
</svg>
