<svg width="42" height="42" viewBox="0 0 42 42" fill="none" xmlns="http://www.w3.org/2000/svg">
<path d="M5.62061 33.079C5.62061 32.0574 4.7754 31.226 3.73679 31.226C2.69818 31.226 1.85297 32.0574 1.85297 33.079C1.85297 34.1006 2.69818 34.9319 3.73679 34.9319C4.7754 34.9319 5.62061 34.1006 5.62061 33.079ZM3.10885 33.079C3.10885 32.738 3.39017 32.4613 3.73679 32.4613C4.08341 32.4613 4.36473 32.738 4.36473 33.079C4.36473 33.4199 4.08341 33.6966 3.73679 33.6966C3.39017 33.6966 3.10885 33.4199 3.10885 33.079ZM1.85297 24.0886C1.85297 25.1102 2.69818 25.9416 3.73679 25.9416C4.7754 25.9416 5.62061 25.1102 5.62061 24.0886C5.62061 23.067 4.7754 22.2356 3.73679 22.2356C2.69818 22.2356 1.85297 23.067 1.85297 24.0886ZM3.73679 23.471C4.08341 23.471 4.36473 23.7477 4.36473 24.0886C4.36473 24.4296 4.08341 24.7063 3.73679 24.7063C3.39017 24.7063 3.10885 24.4296 3.10885 24.0886C3.10885 23.7477 3.39017 23.471 3.73679 23.471ZM19.4353 29.0299C19.4353 29.3708 19.7166 29.6475 20.0633 29.6475H21.3191C22.3578 29.6475 23.203 30.4789 23.203 31.5005C23.203 32.5221 22.3578 33.3535 21.3191 33.3535V34.5888H20.0633V33.3535C19.0246 33.3535 18.1794 32.5221 18.1794 31.5005H19.4353C19.4353 31.8415 19.7166 32.1182 20.0633 32.1182H21.3191C21.6658 32.1182 21.9471 31.8415 21.9471 31.5005C21.9471 31.1596 21.6658 30.8828 21.3191 30.8828H20.0633C19.0246 30.8828 18.1794 30.0515 18.1794 29.0299C18.1794 28.0083 19.0246 27.1769 20.0633 27.1769V25.9416H21.3191V27.1769C22.3578 27.1769 23.203 28.0083 23.203 29.0299H21.9471C21.9471 28.6889 21.6658 28.4122 21.3191 28.4122H20.0633C19.7166 28.4122 19.4353 28.6889 19.4353 29.0299ZM39.5294 33.079C39.5294 34.1006 38.6842 34.9319 37.6456 34.9319C36.607 34.9319 35.7618 34.1006 35.7618 33.079C35.7618 32.0574 36.607 31.226 37.6456 31.226C38.6842 31.226 39.5294 32.0574 39.5294 33.079ZM38.2736 33.079C38.2736 32.738 37.9922 32.4613 37.6456 32.4613C37.299 32.4613 37.0177 32.738 37.0177 33.079C37.0177 33.4199 37.299 33.6966 37.6456 33.6966C37.9922 33.6966 38.2736 33.4199 38.2736 33.079ZM37.6456 22.2356C38.6842 22.2356 39.5294 23.067 39.5294 24.0886C39.5294 25.1102 38.6842 25.9416 37.6456 25.9416C36.607 25.9416 35.7618 25.1102 35.7618 24.0886C35.7618 23.067 36.607 22.2356 37.6456 22.2356ZM37.6456 23.471C37.299 23.471 37.0177 23.7477 37.0177 24.0886C37.0177 24.4296 37.299 24.7063 37.6456 24.7063C37.9922 24.7063 38.2736 24.4296 38.2736 24.0886C38.2736 23.7477 37.9922 23.471 37.6456 23.471ZM34.5059 33.6966V32.4613H33.25V29.373H30.7383V30.6083H31.9941V33.6966H34.5059ZM34.5059 24.7063V23.471H31.9941V26.5592H30.7383V27.7946H33.25V24.7063H34.5059ZM6.8765 32.4613V33.6966H9.38826V30.6083H10.6441V29.373H8.13238V32.4613H6.8765ZM10.6441 26.5592H9.38826V23.471H6.8765V24.7063H8.13238V27.7946H10.6441V26.5592ZM18.1794 14.2061V13.9189L17.9735 13.7836C17.0422 13.1721 16.4457 12.1963 16.322 11.1178H15.6677C14.6291 11.1178 13.7838 10.2865 13.7838 9.26485C13.7838 8.80964 13.9584 8.39704 14.2366 8.07401C13.9427 7.48476 13.7838 6.83931 13.7838 6.17657C13.7838 3.79303 15.7562 1.85297 18.1794 1.85297H23.203C25.6262 1.85297 27.5986 3.79303 27.5986 6.17657C27.5986 6.83931 27.4397 7.48476 27.1464 8.07463C27.4246 8.39766 27.5986 8.80964 27.5986 9.26485C27.5986 10.2865 26.7533 11.1178 25.7147 11.1178H25.0604C24.9367 12.1963 24.3402 13.1728 23.4089 13.7836L23.203 13.9189V14.2061H32.6221C32.9021 14.2061 33.1583 14.3 33.3675 14.4526L33.618 14.2061C34.4274 13.4099 35.8403 13.4099 36.6497 14.2061H37.0177C38.0563 14.2061 38.9015 15.0375 38.9015 16.0591V17.2944C38.9015 18.316 38.0563 19.1474 37.0177 19.1474H33.878H31.9941H26.3427V21.6174H27.4548L29.0968 27.2714C29.353 28.1491 29.4824 29.0595 29.4824 29.9755C29.4824 33.0564 27.986 36.0008 25.4799 37.85L23.7053 39.1588C22.8394 39.7963 21.7688 40.1471 20.6912 40.1471C19.6137 40.1471 18.5443 39.7975 17.6802 39.1613L15.9032 37.85C13.3964 36.0008 11.9 33.057 11.9 29.9755C11.9 29.0595 12.0294 28.1491 12.2856 27.2702L13.927 21.6174H15.0397V19.1474H9.38826H7.50444H4.36473C3.32612 19.1474 2.48091 18.316 2.48091 17.2944V16.0591C2.48091 15.0375 3.32612 14.2061 4.36473 14.2061H4.7327C5.54212 13.4099 6.95499 13.4099 7.76441 14.2061L8.01495 14.4526C8.22406 14.3 8.48026 14.2061 8.76032 14.2061H18.1794ZM7.50444 17.9121V15.6971L6.8765 15.0795C6.54055 14.7503 5.95656 14.7503 5.62061 15.0795L5.25264 15.4414H4.36473C4.01811 15.4414 3.73679 15.7181 3.73679 16.0591V17.2944C3.73679 17.6353 4.01811 17.9121 4.36473 17.9121H7.50444ZM26.5085 22.8527H24.8369C23.7292 22.8527 22.6573 22.5327 21.7361 21.9287L20.6912 21.2431L19.6457 21.9287C18.7251 22.5334 17.652 22.8527 16.543 22.8527H14.8746L13.4937 27.6099C13.2696 28.3789 13.1559 29.1744 13.1559 29.9755C13.1559 32.6697 14.4645 35.2441 16.6567 36.8618L18.4325 38.1724C19.7286 39.1255 21.6526 39.1267 22.9524 38.17L24.7257 36.8618C26.9179 35.2447 28.2265 32.6703 28.2265 29.9755C28.2265 29.1744 28.1128 28.3789 27.8899 27.6111L26.5085 22.8527ZM34.5059 15.0795L33.878 15.6971V17.9121H37.0177C37.3643 17.9121 37.6456 17.6353 37.6456 17.2944V16.0591C37.6456 15.7181 37.3643 15.4414 37.0177 15.4414H36.1298L35.7618 15.0795C35.4258 14.7503 34.8419 14.7503 34.5059 15.0795ZM32.6221 15.4414H24.8902H23.203L20.6912 17.5501L18.4861 15.4414H16.4922H8.76032V17.9121H9.38826H16.2956V21.6174H16.543C17.4033 21.6174 18.2353 21.3697 18.9487 20.9009L20.6912 19.7576L22.4331 20.9009C23.1471 21.3697 23.9778 21.6174 24.8362 21.6174H25.0868V17.9121H31.9941H32.6221V15.4414ZM26.3427 9.26485C26.3427 8.9239 26.0614 8.64719 25.7147 8.64719H25.0868V9.02891V9.88251H25.7147C26.0614 9.88251 26.3427 9.6058 26.3427 9.26485ZM15.6677 9.88251H16.2956V8.64719H15.6677C15.3211 8.64719 15.0397 8.9239 15.0397 9.26485C15.0397 9.6058 15.3211 9.88251 15.6677 9.88251ZM17.9214 5.81585C18.5236 5.61882 19.1684 5.66268 19.7367 5.94309L20.7578 6.44525C21.2218 6.67378 21.7417 6.79422 22.2611 6.79422C22.7822 6.79422 23.3034 6.88317 23.7951 7.05302L24.3791 7.16337L25.0868 7.41188H25.7147C25.834 7.41188 25.9496 7.42547 26.0626 7.44647C26.246 7.0487 26.3427 6.61757 26.3427 6.17657C26.3427 4.47369 24.9342 3.08828 23.203 3.08828H18.1794C16.4482 3.08828 15.0397 4.47369 15.0397 6.17657C15.0397 6.61757 15.1364 7.0487 15.3192 7.44647C15.4328 7.42547 15.5484 7.41188 15.6677 7.41188H16.3873C16.5945 6.6744 17.1565 6.06662 17.9214 5.81585ZM18.6699 12.7558L18.8758 12.8911C19.2262 13.1209 19.4353 13.5051 19.4353 13.9189V14.5681L20.6912 15.8034L21.9471 14.5681V13.9189C21.9471 13.5051 22.1562 13.1209 22.5066 12.8911L22.7125 12.7558C23.4127 12.2963 23.8309 11.5279 23.8309 10.7003V8.41125L23.765 8.37851C23.3003 8.14998 22.7804 8.02954 22.2611 8.02954C21.5477 8.02954 20.8337 7.86339 20.1958 7.55024L19.1747 7.04808C18.906 6.9159 18.6008 6.8949 18.3195 6.98755C17.8598 7.13888 17.5515 7.55888 17.5515 8.03448V10.7003C17.5515 11.5279 17.9697 12.2963 18.6699 12.7558Z" fill="#685ED6"/>
</svg>
